<?xml version="1.0" encoding="UTF-8"?><svg id="Layer_2" xmlns="http://www.w3.org/2000/svg" viewBox="0 0 264.14 274.28"><defs><style>.cls-1{fill:#fff;}.cls-2{fill:#231f20;font-family:Didot, Didot;font-size:33px;}</style></defs><g id="Layer_1-2"><g><g id="rW1l3E"><g><path d="M147.65,61.66c2.79,.62,4.75,3.48,4.47,6.34-.55,5.71-.98,11.44-1.52,17.15-.54,5.76-1.17,11.51-1.72,17.27-.19,2-1.26,3.48-2.83,4.54-2.27,1.53-4.59,3.02-6.98,4.34-3.91,2.16-5.63,5.55-5.64,9.84-.02,7.72-1.27,35.36,.38,37.93,.66,1.03,.96,4.94,1.13,6.06,.1,1.24,.21,4.33,.3,7.78,.09,3.38,.07,11.99,.09,14.67,.06,9.02,.34,13.15,.38,22.17,.02,5.86-2.95,8.85-7.12,8.77-4.5-.08-7.03-4.5-6.93-6.96,.34-8.26,.68-16.52,1.13-24.78,.26-4.79,.74-9.56,1.08-14.35,.16-2.34,.19-5.46,.34-7.8,.09-1.35,.98-4.95,1.6-6.03,.87-3.32,1.42-23.56,1.86-31.3,.18-3.15,.17-6.34,0-9.49-.13-2.31-1.3-4.26-3.24-5.61-1.79-1.25-3.64-2.41-5.46-3.61-.07-.05-.15-.09-.22-.13-3.65-1.97-5.58-4.8-5.95-9.17-.89-10.41-2.25-20.78-3.42-31.17-.38-3.39,1.64-6.75,5.81-6.65,3.98,.09,32.07,.1,32.48,.19Zm-14.29,13.27c0-1.35-.52-2.01-1.59-2.06-1.11-.05-1.73,.63-1.75,2.04-.02,1.32,.07,2.65,.07,3.97-.03,5.99-.09,11.99-.12,17.98,0,.81-.09,1.66,.12,2.42,.12,.45,.75,1.03,1.17,1.04,.39,0,1.02-.59,1.14-1.03,.24-.85,.23-1.77,.25-2.67,.12-5.82,.7-20.28,.71-21.69Zm-9.02,.74s.03-.86,0-1.28c-.08-1.04-.6-1.72-1.71-1.67-1.08,.04-1.61,.7-1.6,1.77,0,.51,.08,1.02,.11,1.53,.35,6.79,.69,13.57,1.03,20.36,.05,.94,.37,1.64,1.44,1.54,1.01-.1,1.11-.86,1.1-1.71-.13-6.84-.24-13.69-.35-20.53Zm18.06-.68c.04-1.17-.49-1.9-1.59-1.96-1.08-.05-1.71,.67-1.77,2.04-.13,2.56-.26,5.12-.39,7.68-.25,4.61-.5,9.22-.76,13.83-.05,.87,.2,1.56,1.19,1.65,.91,.08,1.3-.47,1.38-1.32,.12-1.45,.25-2.9,.38-4.34,.52-5.78,1.04-11.57,1.58-17.58Zm-10.75,133.41c.02-.98,.08-1.97,.04-2.95-.06-1.63-1.36-2.71-3.14-2.68-1.6,.03-2.51,.9-2.58,2.57-.08,1.88-.04,3.76-.15,5.64-.07,1.27,.5,2,1.65,2.19,.86,.14,1.78,.13,2.64-.01,.99-.17,1.51-.86,1.48-1.93-.03-.94,.03-1.88,.05-2.82Z"/><path class="cls-1" d="M131.65,208.4c-.02,.94-.07,1.88-.04,2.82,.03,1.07-.49,1.77-1.48,1.93-.86,.14-1.78,.15-2.64,.01-1.15-.19-1.73-.92-1.65-2.19,.11-1.88,.07-3.76,.15-5.64,.07-1.67,.98-2.54,2.58-2.57,1.78-.03,3.08,1.05,3.14,2.68,.04,.98-.03,1.97-.05,2.95Z"/></g></g><text class="cls-2" transform="translate(37.29 109.05) rotate(-66.32) scale(1 1.41)"><tspan x="0" y="0">A</tspan></text><text class="cls-2" transform="translate(48.46 84.54) rotate(-50.56) scale(1 1.41)"><tspan x="0" y="0">N</tspan></text><text class="cls-2" transform="translate(65.52 64.41) rotate(-35.18) scale(1 1.41)"><tspan x="0" y="0">Y</tspan></text><text class="cls-2" transform="translate(86.06 49.89) rotate(-19.03) scale(1 1.41)"><tspan x="0" y="0">O</tspan></text><text class="cls-2" transform="translate(114.41 40.76) rotate(-2.42) scale(1 1.41)"><tspan x="0" y="0">N</tspan></text><text class="cls-2" transform="translate(140.77 40.02) rotate(12.93) scale(1 1.41)"><tspan x="0" y="0">E</tspan></text><text class="cls-2" transform="translate(166.12 46.87) rotate(24.46) scale(1 1.41)"><tspan x="0" y="0"> </tspan></text><text class="cls-2" transform="translate(177.5 51.51) rotate(36.34) scale(1.04 1.41)"><tspan x="0" y="0">C</tspan></text><text class="cls-2" transform="translate(199.04 67.68) rotate(52.38) scale(1.04 1.41)"><tspan x="0" y="0">A</tspan></text><text class="cls-2" transform="translate(215.82 90.14) rotate(68.81) scale(1.04 1.41)"><tspan x="0" y="0">N</tspan></text><text class="cls-2" transform="translate(65.48 208.56) rotate(39) scale(1 -1.41)"><tspan x="0" y="0"> </tspan></text><text class="cls-2" transform="translate(74.78 216.64) rotate(27.39) scale(1 -1.41)"><tspan x="0" y="0">C</tspan></text><text class="cls-2" transform="translate(98.11 228.63) rotate(10.71) scale(1 -1.41)"><tspan x="0" y="0">O</tspan></text><text class="cls-2" transform="translate(127.4 233.81) rotate(-6.73) scale(1 -1.41)"><tspan x="0" y="0">O</tspan></text><text class="cls-2" transform="translate(156.92 229.76) rotate(-23.59) scale(1 -1.41)"><tspan x="0" y="0">K</tspan></text></g></g></svg>