<?xml version="1.0" encoding="UTF-8"?><svg id="Layer_2" xmlns="http://www.w3.org/2000/svg" viewBox="0 0 132.28 116.99"><g id="Layer_1-2"><g id="nzfYSP.tif"><path d="M66.21,19.45c.57-.76,1.17-1.69,1.91-2.51,3.48-3.85,7.26-7.41,11.44-10.47,19.41-14.21,46.67-3.84,51.87,19.67,1.61,7.26,.83,14.36-1.44,21.35-2.43,7.49-6.3,14.24-10.83,20.64-5.76,8.14-12.47,15.46-19.67,22.34-10.09,9.64-20.95,18.32-32.47,26.18-.64,.44-1.08,.47-1.74,.01-15.59-10.72-30.09-22.7-42.75-36.8-6.46-7.19-12.21-14.88-16.58-23.55C3.1,50.66,1.03,44.77,.28,38.46-2.07,18.94,10.81,2.93,28.31,.39c9.75-1.41,18.51,1.08,26.09,7.4,2.76,2.3,5.39,4.77,7.97,7.27,1.41,1.37,2.6,2.97,3.83,4.39Z"/></g></g></svg>