<?xml version="1.0" encoding="utf-8"?>
<!-- Generator: Adobe Illustrator 23.1.1, SVG Export Plug-In . SVG Version: 6.00 Build 0)  -->
<svg version="1.1" id="Layer_1" xmlns="http://www.w3.org/2000/svg" xmlns:xlink="http://www.w3.org/1999/xlink" x="0px" y="0px"
	 viewBox="0 0 32 40" style="enable-background:new 0 0 32 40;" xml:space="preserve">
<style type="text/css">
	.st0{fill:#4F2F0F;}
</style>
<title>Bussiness</title>
<g>
	<path class="st0" d="M29,30H5.6c-2,0-3.6-1.6-3.6-3.6V5.6C2,3.6,3.6,2,5.6,2H29V30z M5.6,4C4.7,4,4,4.7,4,5.6v20.7
		C4,27.3,4.7,28,5.6,28H27V4H5.6z"/>
	<path class="st0" d="M29,29.8H5.1c-1.8-0.1-3.3-1.7-3.2-3.5c0.1-1.7,1.5-3.1,3.2-3.2H29V29.8z M5.1,25.2C4.4,25.3,3.9,26,4,26.8
		c0.1,0.5,0.5,1,1.1,1.1H27v-2.7H5.1z"/>
	<path class="st0" d="M18,13.5V2h7v11.5l-3.5-1.4L18,13.5z M21.4,9.9l1.6,0.6V4h-3v6.5L21.4,9.9z"/>
	<path class="st0" d="M27.4,20.8H3c-0.6,0-1-0.4-1-1s0.4-1,1-1h24.4c0.6,0,1,0.4,1,1S28,20.8,27.4,20.8z"/>
</g>
</svg>
