<?xml version="1.0" encoding="utf-8"?>
<!-- Generator: Adobe Illustrator 23.1.1, SVG Export Plug-In . SVG Version: 6.00 Build 0)  -->
<svg version="1.1" id="Layer_1" xmlns="http://www.w3.org/2000/svg" xmlns:xlink="http://www.w3.org/1999/xlink" x="0px" y="0px"
	 viewBox="0 0 64 80" style="enable-background:new 0 0 64 80;" xml:space="preserve">
<style type="text/css">
	.st0{fill:#4F2F0F;}
</style>
<title>book-bookmark</title>
<path class="st0" d="M13.3,0C10.4,0,8,2.4,8,5.3v48c0,2.9,2.4,5.3,5.3,5.3h5.3V64l6.7-5.3L32,64v-5.3h18.7c2.9,0,5.3-2.4,5.3-5.3
	v-2.7c0,2.9-2.4,5.3-5.3,5.3H32v-5.3H18.7V56h-4c-2.2,0-4-1.9-4-4c0-2.4,1.8-4,4-4h36c2.9,0,5.3-2.4,5.3-5.3V5.3
	C56,2.4,53.6,0,50.7,0H13.3L13.3,0z"/>
</svg>
