<?xml version="1.0" encoding="utf-8"?>
<!-- Generator: Adobe Illustrator 23.1.1, SVG Export Plug-In . SVG Version: 6.00 Build 0)  -->
<svg version="1.1" id="Layer_1" xmlns="http://www.w3.org/2000/svg" xmlns:xlink="http://www.w3.org/1999/xlink" x="0px" y="0px"
	 viewBox="0 0 32 40" style="enable-background:new 0 0 32 40;" xml:space="preserve">
<style type="text/css">
	.st0{fill:#4F2F0F;}
</style>
<title>Artboard 11</title>
<g>
	<path class="st0" d="M16,23.3c-3.4,0-6.2-2.8-6.2-6.2s2.8-6.2,6.2-6.2s6.2,2.8,6.2,6.2S19.4,23.3,16,23.3L16,23.3z M16,12.5
		c-2.5,0-4.6,2.1-4.6,4.6s2.1,4.6,4.6,4.6s4.6-2.1,4.6-4.6C20.6,14.5,18.5,12.5,16,12.5z"/>
	<path class="st0" d="M21.4,15.7H21c-0.3,0-0.6-0.2-0.8-0.5c-1-2.3-3.7-3.4-6.1-2.4c-1.1,0.5-1.9,1.3-2.4,2.4
		c-0.1,0.3-0.4,0.5-0.8,0.5h-0.5c-0.4,0-0.8-0.4-0.8-0.8v0v-4.7C7.6,9.8,6.2,7.6,6.7,5.4c0.4-1.9,2-3.2,3.9-3.2
		c0.6,0,1.1,0.1,1.7,0.4c0.8-2.1,3.1-3.1,5.1-2.4c1.1,0.4,2,1.3,2.4,2.4c0.5-0.2,1.1-0.4,1.7-0.4c2.2,0,4.1,1.9,4,4.1
		c0,1.9-1.4,3.5-3.2,3.9v4.7C22.3,15.4,21.9,15.7,21.4,15.7C21.4,15.7,21.4,15.7,21.4,15.7z M16,10.9c1.7,0,3.4,0.7,4.6,2V9.5
		c0-0.4,0.4-0.8,0.8-0.8c1.3,0,2.4-1.1,2.5-2.4s-1.1-2.4-2.4-2.5c-0.6,0-1.2,0.2-1.7,0.6c-0.3,0.3-0.8,0.3-1.1,0
		c-0.1-0.1-0.2-0.3-0.2-0.5c-0.1-1.3-1.3-2.3-2.6-2.2c-1.2,0.1-2.1,1-2.2,2.2c0,0.4-0.4,0.8-0.9,0.8c-0.2,0-0.4-0.1-0.5-0.2
		c-1-0.9-2.5-0.9-3.4,0.1S7.9,7.1,8.9,8c0.5,0.4,1.1,0.7,1.7,0.6c0.4,0,0.8,0.4,0.8,0.8v0v3.4C12.6,11.6,14.2,10.9,16,10.9z"/>
	<path class="st0" d="M21.4,15.7H21c-0.3,0-0.6-0.2-0.8-0.5c-1-2.3-3.7-3.4-6.1-2.4c-1.1,0.5-1.9,1.3-2.4,2.4
		c-0.1,0.3-0.4,0.5-0.8,0.5h-0.5c-0.4,0-0.8-0.4-0.8-0.8v0v-4.6c0-0.2,0.1-0.5,0.3-0.6c3.5-2.8,8.4-2.8,11.9,0
		c0.2,0.2,0.3,0.4,0.3,0.6v4.6C22.3,15.4,21.9,15.7,21.4,15.7C21.4,15.7,21.4,15.7,21.4,15.7z M16,10.9c1.7,0,3.4,0.7,4.6,2v-2.1
		c-2.8-2-6.5-2-9.2,0v2.2C12.6,11.6,14.2,10.9,16,10.9z"/>
	<path class="st0" d="M8.4,22.2c-1.7,0-3-1.3-3-3s1.3-3,3-3c0.5,0,0.8,0.4,0.8,0.8c0,0.5-0.4,0.8-0.8,0.8c-0.7,0.1-1.3,0.7-1.2,1.5
		c0.1,0.7,0.6,1.2,1.2,1.2c1.4,0,4.4-1.9,6-3.1c0.4-0.3,0.9-0.2,1.1,0.1s0.2,0.9-0.1,1.1C14.9,19.2,10.8,22.2,8.4,22.2z"/>
	<path class="st0" d="M23.6,22.2c-2.4,0-6.5-3.1-7-3.4c-0.4-0.3-0.4-0.8-0.1-1.1s0.8-0.4,1.1-0.1c1.6,1.2,4.6,3.1,6,3.1
		c0.7-0.1,1.3-0.7,1.2-1.5c-0.1-0.7-0.6-1.2-1.2-1.2c-0.5,0-0.8-0.4-0.8-0.8c0-0.5,0.4-0.8,0.8-0.8c1.7,0,3,1.3,3,3
		S25.2,22.3,23.6,22.2L23.6,22.2z"/>
	<path class="st0" d="M26.6,32H5.4c-0.4,0-0.8-0.3-0.8-0.8c0-0.1,0-0.1,0-0.2c1.3-6.3,7.4-10.4,13.8-9.1c4.6,0.9,8.2,4.5,9.1,9.1
		c0.1,0.4-0.2,0.9-0.6,1C26.8,32,26.7,32,26.6,32L26.6,32z M6.4,30.4h19.2c-1.6-5.3-7.2-8.3-12.4-6.7C9.9,24.6,7.4,27.1,6.4,30.4z"
		/>
	<path class="st0" d="M12.6,28.8c0.7,0,1.3-0.6,1.3-1.3c0-0.7-0.6-1.3-1.3-1.3s-1.3,0.6-1.3,1.3C11.3,28.2,11.9,28.8,12.6,28.8z"/>
	<path class="st0" d="M19.4,28.9c0.7,0,1.3-0.6,1.3-1.3c0-0.7-0.6-1.3-1.3-1.3s-1.3,0.6-1.3,1.3C18.1,28.3,18.7,28.9,19.4,28.9
		L19.4,28.9z"/>
</g>
</svg>
