<?xml version="1.0" encoding="utf-8"?>
<!-- Generator: Adobe Illustrator 23.1.1, SVG Export Plug-In . SVG Version: 6.00 Build 0)  -->
<svg version="1.1"
	 id="Layer_1" xmlns:cc="http://creativecommons.org/ns#" xmlns:dc="http://purl.org/dc/elements/1.1/" xmlns:inkscape="http://www.inkscape.org/namespaces/inkscape" xmlns:rdf="http://www.w3.org/1999/02/22-rdf-syntax-ns#" xmlns:sodipodi="http://sodipodi.sourceforge.net/DTD/sodipodi-0.dtd" xmlns:svg="http://www.w3.org/2000/svg"
	 xmlns="http://www.w3.org/2000/svg" xmlns:xlink="http://www.w3.org/1999/xlink" x="0px" y="0px" viewBox="0 0 100 125"
	 style="enable-background:new 0 0 100 125;" xml:space="preserve">
<style type="text/css">
	.st0{fill:#4F2F0F;}
</style>
<g>
	<path class="st0" d="M86.3,16.2c-4.1-3.4-9.3-5.2-14.7-5.2c-6.3,0-12.3,2.5-16.6,6.8c-1,1-1.9,2.1-2.8,3.4
		c-4.4-6.4-11.5-10.2-19.1-10.2c-1.4,0-2.8,0.1-4.2,0.4C21.6,12.6,16,16.6,12,23.1c-5.7,9.4-6.1,18-1.4,26.4
		c2.6,4.5,5.9,8.9,10.2,13.5c7.9,8.4,17.2,16.3,29.4,25.1c0.6,0.5,1.3,0.7,2,0.7c1.1,0,1.8-0.6,2.3-0.9
		c10.8-7.7,19.7-15.2,27.1-22.7c4.2-4.3,8.9-9.5,12.4-16c1.5-2.7,3.1-6.4,3-10.6C96.8,29.4,93.2,21.9,86.3,16.2z M89.6,46.7
		c-3.2,6-7.6,10.9-11.5,14.9c-7.1,7.2-15.5,14.3-25.8,21.7c-11.5-8.3-20.3-15.8-27.8-23.8c-4-4.3-7.1-8.4-9.5-12.5
		c-3.8-6.8-3.4-13.6,1.3-21.3c3.2-5.2,7.7-8.4,13.5-9.5c1.1-0.2,2.2-0.3,3.3-0.3C40,15.9,46,19.7,49.3,26c0.2,0.4,0.4,0.7,0.7,1.3
		c0.4,0.8,1.3,1.3,2.2,1.3c0,0,0,0,0,0c0.9,0,1.8-0.6,2.2-1.4c1.2-2.4,2.5-4.3,4.1-5.9c3.4-3.4,8.1-5.3,13-5.3
		c4.2,0,8.3,1.4,11.5,4.1c5.7,4.7,8.7,11,8.9,18.6C92.1,41.6,90.8,44.4,89.6,46.7z"/>
</g>
</svg>
