<?xml version="1.0" encoding="utf-8"?>
<!-- Generator: Adobe Illustrator 23.1.1, SVG Export Plug-In . SVG Version: 6.00 Build 0)  -->
<svg version="1.1" id="Layer_1" xmlns="http://www.w3.org/2000/svg" xmlns:xlink="http://www.w3.org/1999/xlink" x="0px" y="0px"
	 viewBox="0 0 100 125" style="enable-background:new 0 0 100 125;" xml:space="preserve">
<style type="text/css">
	.st0{fill:#FFFFFF;}
</style>
<path class="st0" d="M33.3,20.9h-6l-0.9-10c0-0.5-0.5-0.9-1-0.9h-3.8c-0.5,0-0.9,0.4-1,0.9l-0.9,10h-6c-0.6,0-1,0.4-1,1v4.4h-1.5
	c-0.6,0-1,0.4-1,1V89c0,0.6,0.4,1,1,1h24.7c0.6,0,1-0.4,1-1V27.2c0-0.6-0.4-1-1-1h-1.5v-4.4C34.3,21.3,33.8,20.9,33.3,20.9z
	 M22.5,12h2l0.8,8.9h-3.6L22.5,12z M14.6,22.9h17.7v3.4H14.6V22.9z M26.4,28.2h2.1v14.9c0,0.6-0.5,1-1,1s-1-0.5-1-1
	C26.4,43.1,26.4,28.2,26.4,28.2z M18.4,28.2h2.1v9.1c0,0.6-0.5,1-1,1s-1-0.5-1-1C18.4,37.3,18.4,28.2,18.4,28.2z M34.8,88H12.1V28.2
	h4.2v9.1c0,1.7,1.4,3,3,3s3-1.4,3-3v-9.1h2v14.9c0,1.7,1.4,3,3,3s3-1.4,3-3V28.2h4.2V88z"/>
<path class="st0" d="M51,28.8h-1.3c-1.6,0-3,1.3-3,3v1.4h-0.9c-4.2,0-7.7,3.5-7.7,7.7c0,3.4,2.2,6.3,5.2,7.3V50
	c-1.2,0.3-2.1,1.4-2.1,2.7c0,1.4,1.1,2.6,2.4,2.7c-0.1,0.5-0.5,1.6-1.9,4C39,64.2,39,70.6,41.8,79c-0.9,0.5-1.6,1.5-1.6,2.6
	c0,0.6,0.2,1.1,0.5,1.6c-0.7,0.6-1.2,1.4-1.2,2.4V89c0,0.6,0.4,1,1,1h19.7c0.6,0,1-0.4,1-1v-3.4c0-1-0.5-1.9-1.2-2.4
	c0.3-0.5,0.5-1,0.5-1.6c0-1.1-0.7-2.1-1.6-2.6c2.8-8.4,2.8-14.8,0-19.6c-1.3-2.2-1.8-3.4-2-4c1.4-0.1,2.6-1.3,2.6-2.7
	c0-1.3-0.9-2.4-2.1-2.7v-1.9c3-1,5.2-3.9,5.2-7.3c0-4.2-3.5-7.7-7.7-7.7h-0.9v-1.4C53.9,30.1,52.6,28.8,51,28.8z M48.6,31.8
	c0-0.5,0.4-1,1-1H51c0.5,0,1,0.4,1,1v1.4h-3.3C48.6,33.1,48.6,31.8,48.6,31.8z M57.4,80.6c0.5,0,1,0.4,1,1s-0.4,1-1,1H43.2
	c-0.5,0-1-0.4-1-1s0.4-1,1-1H57.4z M59.1,88H41.4v-2.4c0-0.6,0.5-1,1-1h0.7h14.2h0.7c0.6,0,1,0.5,1,1L59.1,88L59.1,88z M56.8,78.6
	h-13c-2.7-7.9-2.8-13.9-0.3-18.2c1.6-2.7,2.1-4.2,2.2-5h9c0.2,1,1,2.7,2.4,5C59.6,64.7,59.5,70.7,56.8,78.6z M56.6,53.4H44
	c-0.4,0-0.7-0.3-0.7-0.7c0-0.4,0.3-0.7,0.7-0.7h12.6c0.4,0,0.7,0.3,0.7,0.7S57,53.4,56.6,53.4z M55.3,49.9h-10v-1.4
	c0.2,0,0.3,0,0.5,0h9.1c0.2,0,0.3,0,0.5,0V49.9z M60.5,40.8c0,3.1-2.6,5.7-5.7,5.7h-9.1c-3.1,0-5.7-2.6-5.7-5.7
	c0-3.1,2.6-5.7,5.7-5.7h9.1C58,35.1,60.5,37.7,60.5,40.8z"/>
<path class="st0" d="M69.5,40c-0.2,0.3-0.5,0.7-0.8,1.1l-1.9,2.7c-1.7,2.4-2.6,5.2-2.6,8.1v35.2c0,1.6,1.3,2.9,2.9,2.9h20.1
	c1.6,0,2.9-1.3,2.9-2.9V51.9c0-2.9-0.9-5.7-2.6-8.1l-1.9-2.7c-0.3-0.4-0.6-0.8-0.8-1.1c-1.1-1.5-1.6-2.1-1.6-4.2v-1.9
	c0.9-0.1,1.6-0.9,1.6-1.8v-3.6c0-1-0.8-1.8-1.8-1.8h-2.5V11c0-0.4-0.2-0.8-0.6-0.9c-0.4-0.2-0.8-0.1-1.1,0.2l-4.8,4.5
	c-0.2,0.2-0.3,0.5-0.3,0.7v11.1h-2.5c-1,0-1.8,0.8-1.8,1.8v3.6c0,0.9,0.7,1.7,1.6,1.8v1.9C71.1,37.9,70.6,38.5,69.5,40z M87.2,88
	H67.1c-0.5,0-0.9-0.4-0.9-0.9V52.5c5.3,0,7.9,1.1,10.6,2.1c2.8,1.1,5.7,2.2,11.3,2.3v30.2C88.1,87.6,87.7,88,87.2,88z M84,42.2
	l1.9,2.7c1.4,2,2.2,4.4,2.2,6.9v3.1c-5.2,0-7.8-1.1-10.6-2.1c-2.8-1.1-5.7-2.2-11.3-2.3c0.2-2,0.9-3.9,2.1-5.6l1.9-2.7
	c0.3-0.4,0.5-0.7,0.8-1c1.2-1.6,2-2.7,2-5.4v-1.9h8.1v1.9c0,2.7,0.8,3.8,2,5.4C83.5,41.5,83.7,41.9,84,42.2z M75.8,16l2.8-2.6v13.3
	h-2.8V16z M71.5,28.6h11.4v3.3H71.5V28.6z"/>
</svg>
