<?xml version="1.0" encoding="utf-8"?>
<!-- Generator: Adobe Illustrator 23.1.1, SVG Export Plug-In . SVG Version: 6.00 Build 0)  -->
<svg version="1.1"
	 id="Layer_1" xmlns:cc="http://creativecommons.org/ns#" xmlns:dc="http://purl.org/dc/elements/1.1/" xmlns:inkscape="http://www.inkscape.org/namespaces/inkscape" xmlns:rdf="http://www.w3.org/1999/02/22-rdf-syntax-ns#" xmlns:sodipodi="http://sodipodi.sourceforge.net/DTD/sodipodi-0.dtd" xmlns:svg="http://www.w3.org/2000/svg"
	 xmlns="http://www.w3.org/2000/svg" xmlns:xlink="http://www.w3.org/1999/xlink" x="0px" y="0px" viewBox="0 0 100 125"
	 style="enable-background:new 0 0 100 125;" xml:space="preserve">
<style type="text/css">
	.st0{fill-rule:evenodd;clip-rule:evenodd;fill:#4F2F0F;}
</style>
<g transform="translate(0,-952.36218)">
	<path class="st0" d="M16.5,958.4c0.7,0,1.3,0.3,1.7,0.9l5.8,7.9c0.3,0.4,0.4,0.8,0.4,1.3V979h2.3c1.2,0,2.2,1.1,2.2,2.2v5.9
		c0,1.2-1.1,2.2-2.2,2.2h-0.3v5c0,0,0.2,0.7,0.7,1.5c0.5,0.9,1.2,2.1,2,3.3c1.5,2.5,3.3,5.1,3.3,8.3v25.4c0,1.1-0.4,2-1,2.8h4.2
		c-0.6-0.9-1-2-1-3.1c0-11.2,0-22.5,0-33.7c0-3.6,1.9-7.1,3.6-10.3c0.9-1.6,1.7-3.2,2.3-4.5c0.6-1.3,1-2.3,1-2.7V974H41
		c-1.2,0-2.2-1.1-2.2-2.2V964c0-1.2,1.1-2.2,2.2-2.2h17.4c1.1,0,2.2,1.1,2.2,2.2v7.8c0,1.1-1,2.2-2.2,2.2h-0.7v7.4
		c0,0.1,0.3,1.1,0.9,2.3c0.6,1.2,1.5,2.7,2.3,4.3c1.8,3.2,3.7,6.9,3.7,10.6v33.7c0,1.1-0.3,2.2-1,3.1h3.1c-0.6-0.8-1-1.7-1-2.8
		c0-8.5,0-16.9,0-25.4c0-3.1,1.7-5.6,3.2-8.1c0.8-1.2,1.5-2.5,2-3.4c0.5-0.9,0.7-1.6,0.8-1.8v-4.8h-0.3c-1.2,0-2.2-1.1-2.2-2.2v-5.9
		c0-1.2,1.1-2.2,2.2-2.2h15.2c1.2,0,2.2,1.1,2.2,2.2v5.9c0,1.2-1.1,2.2-2.2,2.2h-0.3v5c0,0,0.2,0.7,0.7,1.5c0.5,0.9,1.3,2.1,2,3.3
		c1.5,2.5,3.3,5.1,3.3,8.3v25.4c0,1.1-0.4,2-1,2.8h0.3c1.2,0,2.2,1,2.2,2.2v6.4c0,1.2-1.1,2.2-2.2,2.2H8.2c-1.2,0-2.2-1.1-2.2-2.2
		v-6.4c0-0.9,0.6-1.7,1.4-2c-0.7-0.8-1.1-1.8-1.1-2.9v-25.4c0-3,1.7-5.6,3.2-8.1c0.7-1.2,1.5-2.4,2-3.3c0.5-0.9,0.8-1.7,0.8-1.8
		v-4.8h-0.3c-1.2,0-2.2-1.1-2.2-2.2v-5.9c0-1.2,1.1-2.2,2.2-2.2h2.3v-18.5C14.2,959.4,15.4,958.3,16.5,958.4z M18.7,967.3V979h1.4
		v-9.8L18.7,967.3z M53.3,974h-7.2v7.4v0.2c-0.2,1.5-0.8,2.8-1.5,4.2c-0.7,1.5-1.6,3-2.4,4.6c-1.7,3.2-3.1,6.5-3.1,8.2v5.8
		c6.6-0.6,13.4-3.7,21.1-4.2v-1.5c0-1.9-1.5-5.3-3.2-8.4c-0.9-1.6-1.7-3.1-2.4-4.6c-0.7-1.4-1.3-2.7-1.3-4.3V974z M82,989.3h-5.7v5
		c0,0.1,0,0.2,0,0.3c-0.2,1.3-0.7,2.3-1.4,3.4c-0.6,1.1-1.4,2.3-2.1,3.5c-1.4,2.4-2.6,4.9-2.6,5.8v4.5c2.6-0.1,5.3-0.9,8.2-1.8
		c3-0.9,6.2-1.8,9.6-1.8v-0.9c0-1.1-1.2-3.6-2.7-6c-0.7-1.2-1.5-2.3-2.2-3.4c-0.6-1.1-1.2-2.1-1.2-3.6V989.3z M22.1,989.3h-5.5v5
		c0,0.1,0,0.2,0,0.3c-0.2,1.3-0.7,2.3-1.3,3.4c-0.6,1.1-1.4,2.3-2.1,3.5c-1.4,2.4-2.5,4.9-2.5,5.8v4h17.4v-4c0-1.1-1.2-3.6-2.7-6
		c-0.7-1.2-1.5-2.3-2.1-3.4c-0.6-1.1-1.2-2.1-1.2-3.6V989.3z M89.6,1039.9H10.4v2h79.2V1039.9z"/>
</g>
</svg>
