<?xml version="1.0" encoding="utf-8"?>
<!-- Generator: Adobe Illustrator 23.1.1, SVG Export Plug-In . SVG Version: 6.00 Build 0)  -->
<svg version="1.1" id="Layer_1" xmlns="http://www.w3.org/2000/svg" xmlns:xlink="http://www.w3.org/1999/xlink" x="0px" y="0px"
	 viewBox="0 0 50 62.5" style="enable-background:new 0 0 50 62.5;" xml:space="preserve">
<style type="text/css">
	.st0{fill:#4F2F0F;}
</style>
<g>
	<path class="st0" d="M35.3,1H8.7c-0.6,0-1,0.4-1,1v39.1c0,0.6,0.4,1,1,1h3.1V48c0,0.4,0.2,0.8,0.6,0.9c0.4,0.2,0.8,0.1,1.1-0.2
		l2.1-2.2l2.1,2.2c0.3,0.3,0.7,0.4,1.1,0.2c0.4-0.2,0.6-0.5,0.6-0.9v-5.9h15.8c3.9,0,7-3.1,7-7V8C42.3,4.1,39.2,1,35.3,1z M9.7,3h5
		v37.1c-0.4,0-5.1,0-5,0V3z M17.5,45.6l-1.1-1.1c-0.2-0.2-0.4-0.3-0.7-0.3c-0.3,0-0.5,0.1-0.7,0.3l-1.1,1.1v-3.4h3.7V45.6z
		 M40.3,35.1c0,2.8-2.2,5-5,5c-7.3,0-15.6,0-18.6,0V3h18.6c2.8,0,5,2.2,5,5V35.1z"/>
	<path class="st0" d="M34,12.7c-0.3,0-0.6,0-0.9,0.1c-1.2-1.1-2.7-1.8-4.4-1.8c-2.4,0-4.5,1.3-5.6,3.4c-3-0.1-5.3,2.3-5.3,5.2
		c0,2.1,1.3,4,3.1,4.8v6.8c0,0.6,0.4,1,1,1h13.2c0.6,0,1-0.4,1-1v-8.5c1.9-0.8,3.1-2.7,3.1-4.8C39.2,15,36.9,12.7,34,12.7z
		 M22.9,30.2v-2.5h11.2v2.5H22.9z M34.8,21c-0.4,0.1-0.7,0.5-0.7,1v3.7H22.9v-2c0-0.5-0.3-0.9-0.7-1c-1.4-0.4-2.4-1.6-2.4-3.1
		c0-1.7,1.5-3.2,3.2-3.2c0.2,0,0.4,0,0.6,0.1c0.5,0.1,1-0.2,1.1-0.6c0.6-1.7,2.2-2.8,4.1-2.8c1.3,0,2.5,0.5,3.3,1.5
		c0.3,0.3,0.7,0.4,1.1,0.3c0.3-0.1,0.6-0.1,1-0.1c1.8,0,3.2,1.4,3.2,3.2C37.2,19.3,36.2,20.6,34.8,21z"/>
</g>
</svg>
