<?xml version="1.0" encoding="iso-8859-1"?>
<!-- Generator: Adobe Illustrator 19.0.0, SVG Export Plug-In . SVG Version: 6.00 Build 0)  -->
<svg version="1.1" id="Layer_1" xmlns="http://www.w3.org/2000/svg" xmlns:xlink="http://www.w3.org/1999/xlink" x="0px" y="0px"
	 viewBox="0 0 511.999 511.999" style="enable-background:new 0 0 511.999 511.999;" xml:space="preserve">
<path style="fill:#F9DE8F;" d="M509.539,89.155c-3.28-3.28-8.596-3.28-11.878,0l-98.409,98.409l-12.354-12.354l98.409-98.409
	c3.28-3.28,3.28-8.596,0-11.878c-3.28-3.28-8.596-3.28-11.878,0l-98.409,98.409l-12.354-12.354l98.409-98.409
	c3.28-3.28,3.28-8.596,0-11.878c-3.28-3.28-8.596-3.28-11.878,0L350.788,139.1l-12.354-12.354l98.409-98.409
	c3.28-3.28,3.28-8.596,0-11.878c-3.28-3.28-8.596-3.28-11.878,0L302.8,138.624c-18.412,18.412-22.297,45.835-11.68,68.063
	L42.115,427.7c-0.835,0.709-1.651,1.452-2.44,2.24c-15.571,15.569-15.571,40.815,0,56.384c15.571,15.569,40.815,15.569,56.384,0
	c0.788-0.788,1.531-1.605,2.24-2.44l221.012-249.005c22.228,10.616,49.653,6.73,68.064-11.68l122.164-122.165
	C512.819,97.754,512.819,92.436,509.539,89.155z"/>
<polygon style="fill:#F7CF6D;" points="263.522,297.734 226.03,264.458 190.571,295.931 227.847,337.927 "/>
<path style="fill:#F09EA0;" d="M181.559,101.034C122.764,42.24,50.839,25.011,17.105,58.747S0.598,164.405,59.394,223.198
	c28.865,28.865,73.065,33.009,106.36,12.478l220.305,248.208c0.709,0.835,1.452,1.651,2.24,2.44
	c15.569,15.569,40.815,15.569,56.384,0c15.569-15.571,15.569-40.814,0-56.384c-0.788-0.788-1.603-1.531-2.44-2.24L194.034,207.395
	C214.567,174.1,210.424,129.9,181.559,101.034z"/>
<path style="fill:#EF8990;" d="M198.613,198.905c0.109-0.23,0.224-0.458,0.33-0.69c0.148-0.311,0.282-0.631,0.428-0.945
	c14.132-31.725,8.213-70.211-17.812-96.235c-1.06-1.059-2.126-2.102-3.194-3.136c7.349,13.019,11.559,28.044,11.559,44.06
	c0,49.603-40.211,89.814-89.814,89.814c-15.65,0-30.354-4.02-43.166-11.06c0.809,0.83,1.624,1.66,2.45,2.485
	c27.752,27.752,69.676,32.639,102.459,14.729C177.726,228.976,190.609,215.352,198.613,198.905z"/>
<g>
</g>
<g>
</g>
<g>
</g>
<g>
</g>
<g>
</g>
<g>
</g>
<g>
</g>
<g>
</g>
<g>
</g>
<g>
</g>
<g>
</g>
<g>
</g>
<g>
</g>
<g>
</g>
<g>
</g>
</svg>
