<?xml version="1.0" encoding="UTF-8"?><svg id="Layer_2" xmlns="http://www.w3.org/2000/svg" viewBox="0 0 139.84 111.42"><g id="Layer_1-2"><g id="D7AgKZ.tif"><g><path d="M19.94,85.48c0-6.56-.09-13.13,.08-19.69,.03-1.2,.76-2.75,1.69-3.52,15.38-12.81,30.86-25.5,46.25-38.29,1.54-1.28,2.51-1.14,3.97,.08,15.34,12.73,30.72,25.41,46.14,38.04,1.37,1.13,1.87,2.31,1.86,4.03-.05,12.79-.02,25.59-.03,38.38,0,4.73-2.13,6.85-6.83,6.86-9.73,0-19.46-.06-29.19,.04-2.14,.02-2.9-.57-2.87-2.81,.11-9.3-.01-18.61,.09-27.91,.02-2.1-.67-2.72-2.71-2.68-5.65,.11-11.31,.09-16.96,0-2.05-.04-2.73,.67-2.71,2.74,.1,9.22-.01,18.44,.09,27.66,.02,2.21-.52,3.06-2.92,3.03-9.64-.13-19.29-.04-28.94-.07-4.96-.01-6.98-2.03-7-6.94-.02-6.31,0-12.63,0-18.94h0Z"/><path d="M97.45,19.58c.11-1.33,.24-2.19,.25-3.04,.02-4.15-.02-8.31,.03-12.46,.03-3.03,.83-3.78,3.9-3.79,4.82-.01,9.65-.02,14.47,0,3.09,.02,3.78,.72,3.78,3.87,.01,10.47,.05,20.93-.03,31.4-.02,2.01,.56,3.37,2.16,4.66,5.39,4.3,10.65,8.75,15.94,13.18,2.38,1.99,2.49,3.25,.55,5.66-1.15,1.42-2.34,2.8-3.52,4.2-2.33,2.78-3.44,2.9-6.18,.63-6.33-5.25-12.64-10.52-18.95-15.78-12.7-10.58-25.41-21.13-38.06-31.77-1.46-1.23-2.33-1.16-3.75,.03-18.85,15.77-37.75,31.49-56.64,47.21-3.26,2.72-4.07,2.61-6.88-.72-1.02-1.21-2.05-2.4-3.05-3.62-2.07-2.53-1.99-3.82,.46-5.86,10.64-8.89,21.3-17.76,31.96-26.63,9.51-7.91,19.03-15.82,28.56-23.72,4.92-4.08,10.17-4.02,15.09,.1,5.93,4.95,11.86,9.9,17.79,14.84,.54,.45,1.12,.86,2.12,1.61Z"/></g></g></g></svg>