<?xml version="1.0" encoding="utf-8"?>
<!-- Generator: Adobe Illustrator 23.0.1, SVG Export Plug-In . SVG Version: 6.00 Build 0)  -->
<svg version="1.1" id="Layer_1" xmlns="http://www.w3.org/2000/svg" xmlns:xlink="http://www.w3.org/1999/xlink" x="0px" y="0px"
	 viewBox="0 0 512 512" style="enable-background:new 0 0 512 512;" xml:space="preserve">
<style type="text/css">
	.st0{fill:#010101;}
</style>
<g id="XMLID_6996_">
	<g id="XMLID_7003_">
		<path id="XMLID_11331_" class="st0" d="M318.5,506h-250c-28.7,0-52.1-23.4-52.1-52.1V58.1C16.4,29.4,39.8,6,68.5,6h250
			c28.7,0,52.1,23.4,52.1,52.1v395.8C370.6,482.6,347.2,506,318.5,506z M68.5,26.8c-17.2,0-31.2,14-31.2,31.2v395.8
			c0,17.2,14,31.2,31.2,31.2h250c17.2,0,31.2-14,31.2-31.2V58.1c0-17.2-14-31.2-31.2-31.2H68.5z"/>
	</g>
	<g id="XMLID_7002_">
		<path id="XMLID_11328_" class="st0" d="M422.7,506c-17.2,0-31.2-14-31.2-31.2V37.3c0-17.2,14-31.2,31.2-31.2
			c17.2,0,31.2,14,31.2,31.2v437.5C453.9,492,439.9,506,422.7,506z M422.7,26.8c-5.7,0-10.4,4.7-10.4,10.4v437.5
			c0,5.7,4.7,10.4,10.4,10.4c5.7,0,10.4-4.7,10.4-10.4V37.3C433.1,31.5,428.4,26.8,422.7,26.8z"/>
	</g>
	<g id="XMLID_7001_">
		<path id="XMLID_11327_" class="st0" d="M485.2,297.7h-41.7c-5.8,0-10.4-4.7-10.4-10.4s4.7-10.4,10.4-10.4h31.2V110.2h-31.2
			c-5.8,0-10.4-4.7-10.4-10.4c0-5.8,4.7-10.4,10.4-10.4h41.7c5.8,0,10.4,4.7,10.4,10.4v187.5C495.6,293,490.9,297.7,485.2,297.7z"/>
	</g>
	<g id="XMLID_7000_">
		<path id="XMLID_11324_" class="st0" d="M318.5,464.3h-250c-5.8,0-10.4-4.7-10.4-10.4V58.1c0-5.8,4.7-10.4,10.4-10.4h250
			c5.8,0,10.4,4.7,10.4,10.4v395.8C328.9,459.7,324.3,464.3,318.5,464.3z M78.9,443.5h229.2v-375H78.9V443.5z"/>
	</g>
	<g id="XMLID_6999_">
		<path id="XMLID_11321_" class="st0" d="M193.5,422.7h-83.3c-5.8,0-10.4-4.7-10.4-10.4v-80.9c0-16.8,4-33.7,11.5-48.8
			c6.1-12.2,9.3-25.8,9.3-39.5v-18.4c0-5.8,4.7-10.4,10.4-10.4h41.7c5.8,0,10.4,4.7,10.4,10.4v18.4c0,13.6,3.2,27.3,9.3,39.5
			c7.5,15.1,11.5,32,11.5,48.8v80.9C203.9,418,199.3,422.7,193.5,422.7z M120.6,401.8h62.5v-70.5c0-13.6-3.2-27.3-9.3-39.5
			c-7.5-15.1-11.5-32-11.5-48.8v-8h-20.8v8c0,16.8-4,33.7-11.5,48.8c-6.1,12.2-9.3,25.8-9.3,39.5V401.8z"/>
	</g>
	<g id="XMLID_6998_">
		<path id="XMLID_11318_" class="st0" d="M276.8,422.7h-83.3c-5.8,0-10.4-4.7-10.4-10.4v-80.9c0-16.8,4-33.7,11.5-48.8
			c6.1-12.2,9.3-25.8,9.3-39.5v-18.4c0-5.8,4.7-10.4,10.4-10.4H256c5.8,0,10.4,4.7,10.4,10.4v18.4c0,13.6,3.2,27.3,9.3,39.5
			c7.5,15.1,11.5,32,11.5,48.8v80.9C287.2,418,282.6,422.7,276.8,422.7z M203.9,401.8h62.5v-70.5c0-13.6-3.2-27.3-9.3-39.5
			c-7.5-15.1-11.5-32-11.5-48.8v-8h-20.8v8c0,16.8-4,33.7-11.5,48.8c-6.1,12.2-9.3,25.8-9.3,39.5V401.8z"/>
	</g>
	<g id="XMLID_6997_">
		<path id="XMLID_11317_" class="st0" d="M318.5,193.5h-250c-5.8,0-10.4-4.7-10.4-10.4c0-5.8,4.7-10.4,10.4-10.4h250
			c5.8,0,10.4,4.7,10.4,10.4C328.9,188.8,324.3,193.5,318.5,193.5z"/>
	</g>
</g>
</svg>
